# xmcd
#
# Track frame offsets:
# 150
# 21343
# 43644
# 63655
# 80186
# 101702
# 122305
# 142113
# 156785
# 176944
# 196515
# 216138
# 237954
# 257723
# 279125
# 299283
#
# Disc length: 4282 seconds
#
#
# Revision: 0
# Processed by: cddbd v1.4PL0 Copyright (c) Steve Scherf et al.
# Submitted via: FreeRIP 2.00 
#
DISCID=eb10b810
DTITLE=周蕙 - 寂寞ㄉ城市
DYEAR=1900
DGENRE=Pop
TTITLE0=體溫
TTITLE1=寂寞ㄉ城市
TTITLE2=只能做朋友
TTITLE3=我很快樂
TTITLE4=Hoid Me Tight
TTITLE5=別對我太好
TTITLE6=瞬間
TTITLE7=不管
TTITLE8=隱形
TTITLE9=終點
TTITLE10=好想好好愛你
TTITLE11=話題
TTITLE12=約定
TTITLE13=相遇太早
TTITLE14=不想讓你知道
TTITLE15=今宵多珍重
EXTD=
EXTT0=
EXTT1=
EXTT2=
EXTT3=
EXTT4=
EXTT5=
EXTT6=
EXTT7=
EXTT8=
EXTT9=
EXTT10=
EXTT11=
EXTT12=
EXTT13=
EXTT14=
EXTT15=
PLAYORDER=
